HIERARCHY
ROOT root
{
	OFFSET 0.000000 0.000000 0.000000
	CHANNELS 6 Xposition Yposition Zposition Zrotation Yrotation Xrotation
	JOINT lhip
	{
		OFFSET 0.058581 -0.082280 -0.017664
		CHANNELS 3 Zrotation Yrotation Xrotation
		JOINT lknee
		{
			OFFSET 0.043451 -0.386469 0.008037
			CHANNELS 3 Zrotation Yrotation Xrotation
			JOINT lankle
			{
				OFFSET -0.014790 -0.426874 -0.037428
				CHANNELS 3 Zrotation Yrotation Xrotation
				JOINT ltoe
				{
					OFFSET 0.041054 -0.060286 0.122042
					CHANNELS 3 Zrotation Yrotation Xrotation
					End Site
					{
						OFFSET 0.000000 0.000000 0.000000
					}
				}
			}
		}
	}
	JOINT rhip
	{
		OFFSET -0.060310 -0.090513 -0.013543
		CHANNELS 3 Zrotation Yrotation Xrotation
		JOINT rknee
		{
			OFFSET -0.043257 -0.383688 -0.004843
			CHANNELS 3 Zrotation Yrotation Xrotation
			JOINT rankle
			{
				OFFSET 0.019056 -0.420046 -0.034562
				CHANNELS 3 Zrotation Yrotation Xrotation
				JOINT rtoe
				{
					OFFSET -0.034840 -0.062106 0.130323
					CHANNELS 3 Zrotation Yrotation Xrotation
					End Site
					{
						OFFSET 0.000000 0.000000 0.000000
					}
				}
			}
		}
	}
	JOINT lowerback
	{
		OFFSET 0.004439 0.124404 -0.038385
		CHANNELS 3 Zrotation Yrotation Xrotation
		JOINT upperback
		{
			OFFSET 0.004488 0.137956 0.026820
			CHANNELS 3 Zrotation Yrotation Xrotation
			JOINT chest
			{
				OFFSET -0.002265 0.056032 0.002855
				CHANNELS 3 Zrotation Yrotation Xrotation
				JOINT lowerneck
				{
					OFFSET -0.013390 0.211636 -0.033468
					CHANNELS 3 Zrotation Yrotation Xrotation
					JOINT upperneck
					{
						OFFSET 0.010113 0.088937 0.050410
						CHANNELS 3 Zrotation Yrotation Xrotation
						End Site
						{
							OFFSET 0.000000 0.000000 0.000000
						}
					}
				}
				JOINT lclavicle
				{
					OFFSET 0.071702 0.114000 -0.018898
					CHANNELS 3 Zrotation Yrotation Xrotation
					JOINT lshoulder
					{
						OFFSET 0.122921 0.045205 -0.019046
						CHANNELS 3 Zrotation Yrotation Xrotation
						JOINT lelbow
						{
							OFFSET 0.255332 -0.015649 -0.022946
							CHANNELS 3 Zrotation Yrotation Xrotation
							JOINT lwrist
							{
								OFFSET 0.265709 0.012698 -0.007375
								CHANNELS 3 Zrotation Yrotation Xrotation
								End Site
								{
									OFFSET 0.000000 0.000000 0.000000
								}
							}
						}
					}
				}
				JOINT rclavicle
				{
					OFFSET -0.082954 0.112472 -0.023707
					CHANNELS 3 Zrotation Yrotation Xrotation
					JOINT rshoulder
					{
						OFFSET -0.113228 0.046853 -0.008472
						CHANNELS 3 Zrotation Yrotation Xrotation
						JOINT relbow
						{
							OFFSET -0.260127 -0.014369 -0.031269
							CHANNELS 3 Zrotation Yrotation Xrotation
							JOINT rwrist
							{
								OFFSET -0.269108 0.006794 -0.006027
								CHANNELS 3 Zrotation Yrotation Xrotation
								End Site
								{
									OFFSET 0.000000 0.000000 0.000000
								}
							}
						}
					}
				}
			}
		}
	}
}
MOTION
Frames: 7
Frame Time: 0.033333
-2.170737 0.756517 1.007745 89.504876 -0.443631 86.213704 -1.946715 0.407688 2.471611 -0.599195 -6.515840 1.478093 2.600125 10.200832 -6.001908 0.000000 -0.000000 0.000000 -0.634809 -2.189149 1.635201 -3.316453 -0.745770 4.953441 1.975739 -9.402453 -6.863098 0.000000 -0.000000 0.000000 -1.215075 1.319381 4.579735 0.249708 -3.076060 4.330263 -1.377832 0.987547 -3.864318 -1.632339 -7.499739 1.844004 2.734860 -7.574241 5.922141 -27.868203 -5.806413 1.622580 -53.320994 -8.188216 15.608069 2.275360 -18.381293 2.117779 -7.707611 -7.805248 4.537447 27.093173 11.881066 4.230975 54.614962 3.771807 20.553165 -0.385339 24.483173 10.783681 4.962121 6.589766 6.903678 
-2.170378 0.757120 1.007821 89.240121 -0.468356 86.375233 -1.988818 0.440328 2.410058 -0.590892 -6.433146 1.362874 2.592715 10.273052 -6.156602 0.000000 -0.000000 0.000000 -0.738304 -2.207431 1.480145 -3.304650 -0.610152 4.861262 2.126608 -9.319221 -6.895146 0.000000 -0.000000 0.000000 -1.241037 1.527044 4.388707 0.216021 -2.825148 4.511959 -1.336768 1.048019 -3.831011 -1.484761 -7.093473 1.455438 2.736536 -7.188893 5.773826 -27.811238 -5.761878 1.670545 -53.409648 -8.180450 15.566889 2.474403 -18.587341 2.167409 -7.019389 -7.497524 4.722023 27.013994 11.662703 4.285521 54.663227 3.789806 20.299114 -0.776719 24.535071 10.297678 5.000749 6.403187 6.429532 
-2.169855 0.757891 1.007933 89.102253 -0.417500 86.425066 -1.927054 0.584816 2.525151 -0.672563 -6.453935 1.107688 2.483039 10.290998 -6.068929 0.000000 -0.000000 0.000000 -0.735567 -2.243248 1.431416 -3.357342 -0.551145 4.825543 2.217049 -9.244262 -6.773446 0.000000 -0.000000 0.000000 -1.152029 1.587641 4.495194 0.228415 -2.683776 4.557518 -1.300014 1.034543 -3.861230 -1.382532 -7.029036 1.095874 2.674439 -6.867476 5.813267 -28.036526 -6.092336 2.058246 -53.148735 -7.967885 15.895894 2.575640 -19.055818 3.156739 -5.260558 -7.540468 4.787132 27.015060 11.789066 4.538405 54.525978 3.776796 20.091693 -1.037262 24.760087 9.714792 3.871376 6.524157 5.529639 
-2.169316 0.759141 1.008234 89.415205 -0.400321 86.500673 -2.015038 0.581374 2.607454 -0.628197 -6.701532 0.825721 2.469459 10.189628 -5.876545 0.000000 -0.000000 0.000000 -0.796553 -2.436561 1.370442 -3.452769 -0.576492 4.938734 2.324524 -9.309299 -6.715722 0.000000 -0.000000 0.000000 -1.121278 1.670484 4.437461 0.276794 -2.839894 4.865618 -1.302827 0.943617 -3.900719 -1.415945 -6.576466 0.645289 2.812096 -6.469427 5.526561 -27.874830 -6.079256 1.909183 -53.174884 -7.924914 15.913529 2.476735 -18.912808 3.394879 -5.233475 -7.283038 5.025573 26.931873 11.686667 4.436040 54.361087 3.770459 19.997053 -1.071150 24.548943 9.670514 3.998643 6.466963 5.843915 
-2.169122 0.760057 1.008195 89.580222 -0.432858 86.564258 -2.154243 0.595708 2.522427 -0.605825 -6.846726 0.851931 2.444755 10.136009 -5.872515 0.000000 -0.000000 0.000000 -0.948339 -2.455599 1.256896 -3.405906 -0.708079 5.053587 2.355084 -9.345231 -6.835208 0.000000 -0.000000 0.000000 -1.114071 1.613339 4.574000 0.269374 -2.788558 4.768314 -1.332555 0.927783 -3.853144 -1.340889 -6.525692 0.577636 2.908803 -6.424669 5.336710 -27.825580 -6.062783 1.764763 -53.038285 -7.925940 15.928188 2.272230 -18.797251 3.465308 -5.390394 -7.385113 5.074962 26.856204 11.549005 4.320889 54.316318 3.705327 20.010642 -1.008331 24.396233 9.869382 4.011987 6.492825 6.175548 
-2.169017 0.761218 1.007905 89.627883 -0.357725 86.622739 -2.144898 0.506875 2.434389 -0.652761 -6.862949 0.886235 2.579017 10.156548 -5.817660 0.000000 -0.000000 0.000000 -0.895129 -2.384177 1.014350 -3.467098 -0.690912 5.393899 2.326057 -9.513262 -6.849867 0.000000 -0.000000 0.000000 -0.983856 1.534703 4.970972 0.192512 -2.713350 4.325510 -1.330193 1.078427 -3.828889 -1.288353 -6.647742 0.515772 2.849241 -6.435955 5.474038 -27.691285 -5.962146 1.626752 -53.090098 -7.868198 16.172697 2.212767 -18.709585 3.984057 -5.565282 -7.170223 5.066654 26.768229 11.370921 4.321401 54.335179 3.559233 20.034296 -1.038454 24.466908 9.846924 4.089799 6.230526 5.628084 
-2.168410 0.762524 1.007918 89.700165 -0.365212 86.665599 -2.254909 0.510645 2.515220 -0.650009 -6.930196 0.711249 2.602594 10.225828 -5.822747 0.000000 -0.000000 0.000000 -0.930129 -2.321013 0.840830 -3.519739 -0.754748 5.742606 2.295034 -9.631544 -7.033107 0.000000 -0.000000 0.000000 -1.023191 1.554801 4.821851 0.253967 -2.715819 4.598506 -1.372843 1.115456 -3.914329 -1.408631 -6.690410 0.612128 3.001272 -6.583935 5.363552 -27.826237 -6.302647 1.769184 -52.865672 -7.781375 16.161399 2.163210 -18.380885 3.720052 -5.574527 -7.421431 5.514626 26.934682 11.792416 4.552007 54.154237 3.137286 20.052157 -1.154492 24.280129 9.935557 3.738004 6.931108 6.342392 
